#!OML:ASF X:\für Bonn\!DataBase\2005_08_12_Daniel\c3d\Daniel.ASF
:FULLY-SPECIFIED
:DEGREES
277
root 14.1646 1.49899 0.63247 -582.154 -85.1983 -231.872
lowerback 48.6863 -3.41658 7.20915
upperback 16.7239 -4.44 -2.75151
thorax -2.05292 -3.31542 -4.58543
lowerneck 11.8504 9.16883 -3.88549
upperneck 5.76939 11.3934 -5.99104
head 0.0231219 5.4984 -1.62067
rclavicle -4.09496e-014 -1.35174e-013
rhumerus -34.0229 10.2108 -90.3758
rradius 39.984
rwrist -5.57952
rhand -35.1617 -335.385
rfingers 7.12502
rthumb -8.30079 -365.201
lclavicle -4.09496e-014 -1.35174e-013
lhumerus -392.4 -6.27158 -283.457
lradius 58.6126
lwrist 4.03263
lhand -20.6911 350.41
lfingers 7.12502
lthumb 5.67263 380.314
rfemur 148.92 -174.063 195.343
rtibia 71.1674
rfoot 34.9547 -3.4916
rtoes 11.7314
lfemur -36.5601 12.4051 -10.5254
ltibia 82.8197
lfoot 23.6492 4.46332
ltoes 5.97523
278
root 14.1704 1.49305 0.635888 -581.667 -85.1053 -232.746
lowerback 48.2773 -3.40097 7.14415
upperback 16.7306 -4.45137 -2.73489
thorax -1.99112 -3.31404 -4.54906
lowerneck 12.0356 9.22179 -3.94234
upperneck 6.12195 11.4496 -5.86362
head 0.0972607 5.5075 -1.57273
rclavicle 2.26615e-014 6.44062e-014
rhumerus -33.1623 9.37121 -90.3786
rradius 38.9927
rwrist -4.66753
rhand -34.9813 -335.621
rfingers 7.12502
rthumb -8.12673 -365.445
lclavicle 2.26615e-014 6.44062e-014
lhumerus -391.743 -6.52558 -283.462
lradius 58.0337
lwrist 3.71712
lhand -20.0556 350.745
lfingers 7.12502
lthumb 6.28615 380.631
rfemur 149.389 -174.276 195.349
rtibia 70.9937
rfoot 35.0631 -3.30489
rtoes 11.602
lfemur -35.8122 11.917 -10.2725
ltibia 82.2711
lfoot 23.596 4.57763
ltoes 6.31952
279
root 14.1761 1.4866 0.6397 -581.483 -85.0147 -233.306
lowerback 47.8377 -3.39745 7.09899
upperback 16.7621 -4.47342 -2.71349
thorax -1.8959 -3.31774 -4.51576
lowerneck 12.1356 9.26266 -3.95075
upperneck 6.49054 11.5046 -5.79263
head 0.196074 5.51571 -1.54489
rclavicle -1.78906e-014 -4.69132e-014
rhumerus -32.3051 8.54114 -90.406
rradius 38.0009
rwrist -3.80038
rhand -34.758 -335.952
rfingers 7.12502
rthumb -7.91119 -365.784
lclavicle -1.78906e-014 -4.69132e-014
lhumerus -391.079 -6.74038 -283.459
lradius 57.4507
lwrist 3.37865
lhand -19.4874 351.14
lfingers 7.12502
lthumb 6.83469 381.01
rfemur 149.841 -174.464 195.382
rtibia 70.8236
rfoot 35.1564 -3.06001
rtoes 11.4302
lfemur -35.0969 11.4145 -10.0205
ltibia 81.7352
lfoot 23.5695 4.62666
ltoes 6.49948
280
root 14.1814 1.48089 0.643716 -581.093 -84.9289 -234.063
lowerback 46.4321 -3.30418 7.01391
upperback 17.6853 -4.50008 -2.62638
thorax -1.74943 -3.32745 -4.54592
lowerneck 12.2096 9.31229 -4.02003
upperneck 6.86224 11.5647 -5.6684
head 0.293632 5.5243 -1.48998
rclavicle -1.59028e-014 5.48646e-014
rhumerus -31.5481 7.8302 -90.4698
rradius 37.0635
rwrist -3.12944
rhand -34.4438 -336.245
rfingers 7.12502
rthumb -7.60792 -366.088
lclavicle -1.59028e-014 5.48646e-014
lhumerus -390.453 -6.93315 -283.442
lradius 56.8791
lwrist 3.04297
lhand -18.8886 351.632
lfingers 7.12502
lthumb 7.41267 381.482
rfemur 150.268 -174.643 195.384
rtibia 70.6696
rfoot 35.2744 -2.84843
rtoes 11.3865
lfemur -34.3829 10.917 -9.80816
ltibia 81.1991
lfoot 23.5285 4.71235
ltoes 6.72558
281
root 14.1892 1.47517 0.647643 -581.07 -84.8335 -234.455
lowerback 46.019 -3.31407 6.98798
upperback 17.6797 -4.52468 -2.61251
thorax -1.66384 -3.32991 -4.52617
lowerneck 12.2188 9.34896 -4.05141
upperneck 7.2711 11.6201 -5.55967
head 0.416056 5.52926 -1.44128
rclavicle -5.56597e-015 -7.95139e-015
rhumerus -30.8313 7.14701 -90.579
rradius 36.1213
rwrist -2.60761
rhand -34.106 -336.487
rfingers 7.12502
rthumb -7.28189 -366.342
lclavicle -5.56597e-015 -7.95139e-015
lhumerus -389.842 -7.10671 -283.432
lradius 56.2718
lwrist 2.72122
lhand -18.3409 352.07
lfingers 7.12502
lthumb 7.94132 381.901
rfemur 150.717 -174.831 195.427
rtibia 70.5029
rfoot 35.398 -2.64385
rtoes 11.5334
lfemur -33.6655 10.4059 -9.58294
ltibia 80.6622
lfoot 23.5244 4.76294
ltoes 6.8512
282
root 14.1968 1.46893 0.651347 -580.755 -84.7765 -235.139
lowerback 45.5933 -3.30952 6.90727
upperback 17.6868 -4.5572 -2.58667
thorax -1.55769 -3.34104 -4.465
lowerneck 12.209 9.37877 -4.0865
upperneck 7.66564 11.667 -5.46804
head 0.537389 5.53033 -1.39685
rclavicle -1.43125e-014 3.02153e-014
rhumerus -30.1445 6.67131 -90.7105
rradius 35.1963
rwrist -2.22464
rhand -33.8174 -336.734
rfingers 7.12502
rthumb -7.00329 -366.598
lclavicle -1.43125e-014 3.02153e-014
lhumerus -389.254 -7.20894 -283.387
lradius 55.6672
lwrist 2.30894
lhand -17.8127 352.528
lfingers 7.12502
lthumb 8.45108 382.339
rfemur 151.155 -175.005 195.418
rtibia 70.3453
rfoot 35.5053 -2.43726
rtoes 11.6422
lfemur -32.9598 9.87853 -9.41497
ltibia 80.1279
lfoot 23.531 4.855
ltoes 7.04994
283
root 14.2042 1.46301 0.655656 -580.787 -84.7031 -235.495
lowerback 45.177 -3.31842 6.86342
upperback 17.6918 -4.58986 -2.55896
thorax -1.45476 -3.35036 -4.42005
lowerneck 12.1902 9.4112 -4.1273
upperneck 8.0684 11.7171 -5.37256
head 0.662152 5.53214 -1.35012
rclavicle 1.19271e-014 -1.19271e-014
rhumerus -29.556 6.27466 -90.8721
rradius 34.3246
rwrist -1.91239
rhand -33.5261 -336.932
rfingers 7.12502
rthumb -6.72213 -366.806
lclavicle 1.19271e-014 -1.19271e-014
lhumerus -388.717 -7.27367 -283.33
lradius 55.0914
lwrist 1.86843
lhand -17.2382 353.001
lfingers 7.12502
lthumb 9.00549 382.789
rfemur 151.626 -175.174 195.443
rtibia 70.1764
rfoot 35.6174 -2.27907
rtoes 11.6687
lfemur -32.2439 9.35508 -9.22668
ltibia 79.6078
lfoot 23.532 4.87751
ltoes 7.08737
